# xmcd
#
# Track frame offsets:
#	150
#	15147
#	36635
#	55085
#	69071
#	86519
#	108425
#	130013
#	147306
#	162606
#	178731
#	193086
#	211958
#	227421
#	244746
#
# Disc length: 3518 seconds
#
# Revision: 0
# Processed by: cddbd v1.5.2PL0 Copyright (c) Steve Scherf et al.
# Submitted via: audiograbber 1.83.01
#
DISCID=c70dbc0f
DTITLE=Sunfly Karaoke - SFKK44
DYEAR=2010
DGENRE=Karaoke CD+G
TTITLE0=Christina Aguilera - Not Myself Tonight
TTITLE1=Usher, Will I Am - OMG
TTITLE2=Adam Lambert - Whataya Want From Me
TTITLE3=Florence And The Machine - You've Got The Love
TTITLE4=Jason Derulo - Riding Solo
TTITLE5=Stan Walker - Unbroken
TTITLE6=Lady Gaga - Allejandro
TTITLE7=Temper Trap - Love Lost
TTITLE8=Kesha - Your Love Is My Drug
TTITLE9=Brian McFadden - Just Say So
TTITLE10=Amy Meredith - Lying
TTITLE11=Adam Brand - Ready For Love
TTITLE12=Lee Kernaghan  - Australian Boy
TTITLE13=The McClymonts - Save Yourself
TTITLE14=Taylor Swift -  Fearless
EXTD=
EXTT0=
EXTT1=
EXTT2=
EXTT3=
EXTT4=
EXTT5=
EXTT6=
EXTT7=
EXTT8=
EXTT9=
EXTT10=
EXTT11=
EXTT12=
EXTT13=
EXTT14=
PLAYORDER=
